<svg width="20" height="19" viewBox="0 0 20 19" fill="none" xmlns="http://www.w3.org/2000/svg">
<path opacity="0.4" d="M20 13.441C20 16.231 17.76 18.491 14.97 18.501H14.96H5.05C2.27 18.501 0 16.251 0 13.461V13.451C0 13.451 0.006 9.02498 0.014 6.79898C0.015 6.38098 0.495 6.14698 0.822 6.40698C3.198 8.29198 7.447 11.729 7.5 11.774C8.21 12.343 9.11 12.664 10.03 12.664C10.95 12.664 11.85 12.343 12.56 11.763C12.613 11.728 16.767 8.39398 19.179 6.47798C19.507 6.21698 19.989 6.45098 19.99 6.86798C20 9.07698 20 13.441 20 13.441Z" fill="#54408C"/>
<path d="M19.4759 3.174C18.6099 1.542 16.9059 0.5 15.0299 0.5H5.04988C3.17388 0.5 1.46988 1.542 0.603884 3.174C0.409884 3.539 0.501884 3.994 0.824884 4.252L8.24988 10.191C8.76988 10.611 9.39988 10.82 10.0299 10.82C10.0339 10.82 10.0369 10.82 10.0399 10.82C10.0429 10.82 10.0469 10.82 10.0499 10.82C10.6799 10.82 11.3099 10.611 11.8299 10.191L19.2549 4.252C19.5779 3.994 19.6699 3.539 19.4759 3.174Z" fill="#54408C"/>
</svg>
